<svg width="45" height="45" viewBox="0 0 45 45" fill="none" xmlns="http://www.w3.org/2000/svg">
<path d="M22.5 45C34.9264 45 45 34.9264 45 22.5C45 10.0736 34.9264 0 22.5 0C10.0736 0 0 10.0736 0 22.5C0 34.9264 10.0736 45 22.5 45Z" fill="#E9FFF2"/>
<path d="M32 18.7654C32 19.8018 31.7404 20.4075 31.3907 20.7978C31.0265 21.2043 30.447 21.5094 29.5592 21.7087C28.6697 21.9083 27.5702 21.9801 26.2694 21.9962C25.5177 22.0054 24.7472 21.9966 23.9335 21.9872C23.3173 21.9801 22.6763 21.9727 22 21.9727C21.3237 21.9727 20.6827 21.9801 20.0665 21.9872C19.2528 21.9966 18.4823 22.0054 17.7306 21.9962C16.4298 21.9801 15.3303 21.9083 14.4408 21.7087C13.553 21.5094 12.9735 21.2043 12.6093 20.7978C12.2596 20.4075 12 19.8018 12 18.7654C12 14.6766 16.2534 11 22 11C27.7466 11 32 14.6766 32 18.7654Z" stroke="#034149" stroke-width="2"/>
<rect x="13" y="24" width="18" height="4" rx="2" fill="#7DFFB1"/>
<path d="M31.5138 30.3907C31.727 30.4526 31.8788 30.5171 31.987 30.5772C31.9286 31.5272 31.6791 32.1427 31.3494 32.5622C30.9698 33.0451 30.3859 33.3932 29.5191 33.6258C28.6419 33.8611 27.5533 33.9572 26.2582 33.9877C25.4259 34.0072 24.5546 33.9997 23.6281 33.9918C23.104 33.9872 22.5623 33.9826 22 33.9826C21.6096 33.9826 21.2276 33.9841 20.8539 33.9856C19.7509 33.9899 18.72 33.994 17.7555 33.9581C16.4651 33.9101 15.3781 33.792 14.5024 33.536C13.6372 33.283 13.0453 32.9152 12.6581 32.41C12.3254 31.9761 12.0773 31.3539 12.0151 30.4195C12.1367 30.3653 12.317 30.3031 12.5802 30.2451C13.1389 30.122 13.9021 30.0525 14.8807 30.0213C16.0551 29.9838 17.4311 30.0024 19.0044 30.0237C20.0793 30.0383 21.2463 30.054 22.504 30.054C23.2632 30.054 23.9761 30.0512 24.6447 30.0485C26.6848 30.0402 28.313 30.0337 29.5912 30.1156C30.4353 30.1697 31.0616 30.2596 31.5138 30.3907Z" stroke="#034149" stroke-width="2"/>
</svg>
